Coordinates
version=1
nRows=36
nColumns=33
inDegrees=yes

Units are S.I. units (second, meters, Newtons, ...)
Angles are in degrees.

endheader
time	ground_thorax_rot_x	ground_thorax_rot_y	ground_thorax_rot_z	ground_thorax_tx	ground_thorax_ty	ground_thorax_tz	clav_prot_r	clav_elev_r	scapula_abduction_r	scapula_elevation_r	scapula_upward_rot_r	scapula_winging_r	shoulder_elv_r	plane_of_elev_r	axial_rot_r	elbow_flexion_r	pro_sup_r	wrist_flex_r	wrist_dev_r	clav_prot_l	clav_elev_l	scapula_abduction_l	scapula_elevation_l	scapula_upward_rot_l	scapula_winging_l	shoulder_elv_l	plane_of_elev_l	axial_rot_l	elbow_flexion_l	pro_sup_l	wrist_flex_l	wrist_dev_l	
4.4200	-5.642182	7.507399	8.763475	-0.083339	1.028484	0.006890	17.659839	-13.696868	44.280548	-14.154153	24.434392	-12.359516	0.303364	-54.087468	122.307643	-31.675653	-147.143989	0.668771	0.620255	26.220348	-9.518605	-39.735718	-6.356101	-23.213489	14.335103	59.218254	2.534348	10.627742	18.028402	18.056602	22.148691	-6.588547	
4.4300	-5.542964	7.310129	8.577151	-0.082291	1.028630	0.007158	17.677489	-13.416782	44.523853	-13.986073	24.726142	-12.612605	0.169244	-54.152520	122.504402	-31.597563	-147.412508	0.734302	0.725515	26.260983	-9.683417	-39.800565	-6.111384	-22.985604	14.350388	59.181210	2.822868	10.603478	16.937663	18.055657	21.740723	-6.245887	
4.4400	-5.446170	7.117894	8.396358	-0.081290	1.028761	0.007434	17.677379	-13.140499	44.724250	-13.816456	24.995172	-12.845031	0.034159	-54.208970	122.685438	-31.525146	-147.740862	0.811692	0.860666	26.305219	-9.839180	-39.871519	-5.878186	-22.766863	14.370793	59.146189	3.094135	10.556470	15.887488	18.032061	21.323142	-5.926107	
4.4500	-5.349568	6.917667	8.221330	-0.080365	1.028846	0.007739	17.653185	-12.860810	44.862218	-13.635884	25.226388	-13.053040	-0.112604	-54.258866	122.829637	-31.480104	-148.214679	0.945125	1.075030	26.359263	-9.973051	-39.958302	-5.682247	-22.590668	14.403520	59.119025	3.311310	10.504390	14.986609	17.935800	20.828363	-5.684826	
4.4600	-5.255057	6.709350	8.057591	-0.079542	1.028884	0.008065	17.613861	-12.589105	44.946277	-13.452045	25.413250	-13.235294	-0.265119	-54.303637	122.929021	-31.463114	-148.829954	1.113078	1.356250	26.416742	-10.080851	-40.051188	-5.524227	-22.450048	14.443828	59.094818	3.472814	10.431849	14.229950	17.774308	20.300934	-5.510807	
4.4700	-5.158634	6.493634	7.908110	-0.078851	1.028874	0.008408	17.564842	-12.327999	44.982983	-13.266367	25.553380	-13.393979	-0.419964	-54.348028	122.977704	-31.478614	-149.588082	1.307365	1.698214	26.473022	-10.163688	-40.142670	-5.401962	-22.341725	14.487052	59.069246	3.579064	10.338018	13.613446	17.548707	19.757872	-5.398243	
4.4800	-5.065310	6.270313	7.783463	-0.078308	1.028811	0.008769	17.524078	-12.086068	44.990218	-13.082200	25.633499	-13.535101	-0.589264	-54.392472	122.962225	-31.547133	-150.537560	1.506551	2.104049	26.515063	-10.224833	-40.212253	-5.305980	-22.249190	14.520535	59.039865	3.616313	10.209137	13.121250	17.249287	19.251839	-5.332364	
4.4900	-4.967638	6.045260	7.680833	-0.077927	1.028701	0.009139	17.494327	-11.857229	44.982881	-12.897883	25.668694	-13.667641	-0.769086	-54.443820	122.896726	-31.668835	-151.647345	1.702605	2.552950	26.538420	-10.272238	-40.252410	-5.225426	-22.162751	14.538538	59.002120	3.605467	10.054843	12.714491	16.889489	18.785254	-5.292227	
4.5000	-4.871139	5.816199	7.602194	-0.077698	1.028557	0.009517	17.486165	-11.654522	44.968207	-12.721097	25.646941	-13.789315	-0.960797	-54.497631	122.786994	-31.870677	-152.849601	1.878441	2.999607	26.533227	-10.312464	-40.246651	-5.152684	-22.076340	14.529350	58.966021	3.540244	9.901712	12.386208	16.491020	18.403625	-5.263304	
4.5100	-4.773935	5.580740	7.548812	-0.077618	1.028382	0.009894	17.495059	-11.477018	44.949658	-12.554789	25.583208	-13.900176	-1.162213	-54.562041	122.668617	-32.152736	-154.054222	2.030971	3.403838	26.496173	-10.348334	-40.188058	-5.090883	-22.001619	14.487420	58.936887	3.432314	9.775240	12.139660	16.079730	18.100804	-5.238167	
4.5200	-4.680833	5.344616	7.516414	-0.077677	1.028182	0.010268	17.516783	-11.321819	44.923776	-12.397756	25.481761	-13.999377	-1.376430	-54.630128	122.552326	-32.517592	-155.238510	2.166620	3.763628	26.429757	-10.382564	-40.080547	-5.036657	-21.936484	14.414514	58.921945	3.287960	9.682096	11.964241	15.664375	17.862895	-5.215954	
4.5300	-4.587650	5.110819	7.500184	-0.077868	1.027960	0.010631	17.539114	-11.183858	44.885859	-12.250878	25.362703	-14.084592	-1.591553	-54.706921	122.464590	-32.949116	-156.296168	2.296333	4.056848	26.342262	-10.413388	-39.936465	-4.998359	-21.897268	14.318248	58.921492	3.130299	9.641679	11.867944	15.280106	17.657553	-5.201730	
4.5400	-4.494602	4.888856	7.499631	-0.078173	1.027735	0.010980	17.556244	-11.067818	44.819845	-12.115836	25.216128	-14.146453	-1.803262	-54.787813	122.399365	-33.452694	-157.177223	2.425043	4.278346	26.237937	-10.446184	-39.762122	-4.971150	-21.883784	14.201237	58.935398	2.967426	9.663423	11.842947	14.949967	17.484863	-5.198561	
4.5500	-4.402911	4.680571	7.521946	-0.078581	1.027509	0.011311	17.564381	-10.976190	44.721261	-11.995208	25.044211	-14.180988	-2.014192	-54.880353	122.361772	-34.020656	-157.873089	2.553905	4.438370	26.118093	-10.479476	-39.559099	-4.960139	-21.904817	14.064610	58.960422	2.800774	9.739629	11.902430	14.683503	17.339496	-5.214123	
4.5600	-4.309532	4.501233	7.564436	-0.079074	1.027294	0.011623	17.557106	-10.902915	44.576247	-11.882484	24.840684	-14.185662	-2.230573	-54.984998	122.333888	-34.655163	-158.468570	2.695885	4.581067	25.985970	-10.520787	-39.332844	-4.953643	-21.948987	13.910647	58.989321	2.639912	9.852044	12.019515	14.465559	17.189564	-5.251812	
4.5700	-4.217441	4.350750	7.624285	-0.079650	1.027096	0.011910	17.534123	-10.852045	44.388728	-11.782525	24.612372	-14.159175	-2.443484	-55.102938	122.315358	-35.335324	-158.960837	2.844487	4.702869	25.844836	-10.564746	-39.089581	-4.956149	-22.016790	13.744476	59.022356	2.488506	9.993115	12.195880	14.303638	17.035627	-5.312064	
4.5800	-4.124974	4.228995	7.705520	-0.080264	1.026931	0.012171	17.494885	-10.835071	44.141662	-11.699123	24.336102	-14.089703	-2.664722	-55.246451	122.303770	-36.099630	-159.407671	3.003149	4.811725	25.681759	-10.620157	-38.806171	-4.963333	-22.113171	13.549462	59.063078	2.341196	10.168421	12.437381	14.195027	16.856278	-5.398776	
4.5900	-4.035300	4.129641	7.799851	-0.080901	1.026782	0.012408	17.443021	-10.843745	43.847105	-11.627086	24.020396	-13.986894	-2.898476	-55.413510	122.302870	-36.945655	-159.867002	3.169582	4.916409	25.493814	-10.675370	-38.479511	-4.984053	-22.235848	13.326890	59.112212	2.194175	10.365727	12.761079	14.122990	16.646783	-5.514601	
4.6000	-3.949771	4.054001	7.896013	-0.081537	1.026650	0.012622	17.379495	-10.873555	43.504217	-11.561432	23.661066	-13.853287	-3.144171	-55.598045	122.306044	-37.881801	-160.332258	3.345884	5.009398	25.281928	-10.725917	-38.111790	-5.020550	-22.381601	13.079900	59.172719	2.048989	10.589928	13.178996	14.092118	16.410994	-5.661860	
4.6100	-3.869692	3.998465	7.983833	-0.082184	1.026519	0.012819	17.306628	-10.906221	43.128470	-11.490396	23.274002	-13.704951	-3.395210	-55.781194	122.302592	-38.877440	-160.767991	3.530132	5.077365	25.059539	-10.757499	-37.728086	-5.080101	-22.541773	12.828038	59.238450	1.906096	10.839959	13.690170	14.102700	16.173130	-5.836557	
4.6200	-3.793041	3.962096	8.072110	-0.082818	1.026393	0.012999	17.225071	-10.945092	42.711393	-11.412944	22.844978	-13.537796	-3.665808	-55.973235	122.283589	-39.949571	-161.194084	3.726281	5.125270	24.820823	-10.775260	-37.317355	-5.162449	-22.724273	12.563047	59.309066	1.755062	11.118439	14.309046	14.158618	15.931559	-6.045689	
4.6300	-3.723239	3.940275	8.156226	-0.083454	1.026270	0.013160	17.135527	-10.983196	42.265512	-11.327021	22.390217	-13.359341	-3.950302	-56.165647	122.242717	-41.062105	-161.593761	3.928882	5.147228	24.574973	-10.769080	-36.896787	-5.274027	-22.925598	12.298062	59.383192	1.592022	11.416594	15.031966	14.262154	15.704569	-6.288106	
4.6400	-3.669738	3.932009	8.238615	-0.084082	1.026197	0.013292	17.036792	-11.060108	41.779290	-11.262803	21.898110	-13.142972	-4.246472	-56.378916	122.171935	-42.213742	-162.025806	4.126623	5.147952	24.307823	-10.749275	-36.441117	-5.410699	-23.153769	12.014637	59.486427	1.406813	11.714320	15.855392	14.457163	15.482088	-6.580911	
4.6500	-3.628714	3.930180	8.320682	-0.084719	1.026162	0.013397	16.928111	-11.158477	41.265487	-11.210421	21.388024	-12.902335	-4.553238	-56.609183	122.077301	-43.374449	-162.476126	4.319817	5.128473	24.028743	-10.707159	-35.967346	-5.577742	-23.405073	11.725086	59.603954	1.196859	12.011073	16.771278	14.715344	15.280687	-6.915286	
4.6600	-3.598064	3.932478	8.408364	-0.085349	1.026164	0.013480	16.810875	-11.277129	40.720741	-11.166483	20.851402	-12.637970	-4.884300	-56.866283	121.964197	-44.564007	-162.970924	4.516795	5.098420	23.732421	-10.648255	-35.465426	-5.772795	-23.683281	11.421335	59.734352	0.952162	12.309435	17.787265	15.009412	15.096487	-7.289785	
4.6700	-3.564507	3.935109	8.498247	-0.085982	1.026155	0.013554	16.689201	-11.366536	40.167337	-11.093996	20.307861	-12.386332	-5.248004	-57.132840	121.835466	-45.771382	-163.457842	4.736746	5.054773	23.438464	-10.559901	-34.970183	-6.001920	-23.980213	11.127817	59.845356	0.671931	12.621230	18.914202	15.258414	14.958190	-7.681391	
4.6800	-3.531443	3.938378	8.587503	-0.086623	1.026142	0.013622	16.567476	-11.431861	39.611551	-10.996740	19.756517	-12.147624	-5.647604	-57.409892	121.680974	-46.993554	-163.939706	4.986034	4.992596	23.150005	-10.445724	-34.486591	-6.262093	-24.296052	10.846103	59.945311	0.347500	12.931583	20.153901	15.450169	14.876809	-8.085397	
4.6900	-3.490185	3.939970	8.680785	-0.087276	1.026108	0.013688	16.448641	-11.451031	39.064638	-10.857981	19.205249	-11.938462	-6.098191	-57.693861	121.489404	-48.225788	-164.387541	5.285726	4.903349	22.879613	-10.305357	-34.035920	-6.552951	-24.630529	10.588896	60.017313	-0.030227	13.237179	21.512211	15.529187	14.882003	-8.481638	
4.7000	-3.449318	3.940287	8.780167	-0.087932	1.026083	0.013744	16.332614	-11.452229	38.518038	-10.698572	18.643290	-11.739671	-6.607200	-57.997428	121.250028	-49.476478	-164.832796	5.640116	4.780175	22.619193	-10.148679	-33.603501	-6.869570	-24.989954	10.343900	60.083004	-0.473094	13.515754	22.987022	15.512774	14.975747	-8.870620	
4.7100	-3.423538	3.941937	8.884572	-0.088578	1.026130	0.013778	16.216188	-11.494271	37.956394	-10.565304	18.058643	-11.511333	-7.196239	-58.345127	120.921560	-50.751391	-165.359894	6.070421	4.592328	22.355329	-9.994194	-33.165471	-7.198338	-25.377573	10.092711	60.185169	-1.008955	13.719407	24.581083	15.418232	15.204390	-9.251802	
4.7200	-3.417614	3.943113	8.988115	-0.089193	1.026269	0.013783	16.088592	-11.597632	37.359938	-10.475163	17.449170	-11.232628	-7.854561	-58.748947	120.526570	-52.061998	-166.003082	6.564262	4.343069	22.071551	-9.840480	-32.694459	-7.541877	-25.794076	9.818320	60.335641	-1.625207	13.845162	26.277659	15.296793	15.536170	-9.630830	
4.7300	-3.427462	3.947378	9.086190	-0.089769	1.026492	0.013758	15.944850	-11.756162	36.723395	-10.423612	16.817625	-10.904304	-8.581743	-59.207725	120.065795	-53.404035	-166.770201	7.139182	4.012651	21.766811	-9.684330	-32.189815	-7.898970	-26.230664	9.521779	60.529231	-2.319621	13.881179	28.077577	15.132185	15.987412	-9.988307	
4.7400	-3.429493	3.951510	9.171317	-0.090310	1.026722	0.013714	15.782106	-11.898197	36.055898	-10.353777	16.179902	-10.569987	-9.340619	-59.697992	119.603728	-54.779207	-167.552481	7.776223	3.634142	21.451420	-9.502827	-31.671292	-8.284733	-26.678186	9.219489	60.712745	-3.048691	13.878547	29.961927	14.908626	16.483367	-10.308803	
4.7500	-3.420407	3.954946	9.248678	-0.090823	1.026945	0.013657	15.604964	-12.020000	35.358535	-10.258853	15.525502	-10.233237	-10.122291	-60.219721	119.145089	-56.189788	-168.322689	8.478159	3.209538	21.126747	-9.297990	-31.141144	-8.698098	-27.137904	8.911708	60.883834	-3.817134	13.829217	31.931186	14.623007	17.006794	-10.587995	
4.7600	-3.392462	3.953546	9.325885	-0.091321	1.027131	0.013597	15.418000	-12.094991	34.634427	-10.112292	14.844280	-9.911556	-10.903966	-60.761318	118.722762	-57.633750	-168.989598	9.248575	2.751234	20.797152	-9.066399	-30.607156	-9.140486	-27.607091	8.604162	61.023876	-4.624260	13.744109	33.977372	14.255069	17.501070	-10.805110	
4.7700	-3.352649	3.946534	9.410872	-0.091812	1.027295	0.013533	15.223217	-12.143800	33.880285	-9.928870	14.127503	-9.592223	-11.694727	-61.333903	118.323990	-59.106598	-169.563721	10.096866	2.252556	20.459453	-8.815632	-30.062978	-9.606379	-28.087200	8.290870	61.146956	-5.487862	13.602194	36.097637	13.808481	17.964801	-10.962272	
